# xmcd
#
# Track frame offsets:
#	150
#	19182
#	39760
#	59812
#	76190
#	96202
#	114162
#	128457
#	145127
#	161527
#
# Disc length: 2369 seconds
#
# Revision: 1
# Processed by: cddbd v1.5.2PL0 Copyright (c) Steve Scherf et al.
# Submitted via: audiograbber 1.83.01
#
DISCID=73093f0a
DTITLE=Jens Bendix - Tiggernes kapel
DYEAR=2000
DGENRE=POP Folk
TTITLE0=4 sultne krager
TTITLE1=hjemvé
TTITLE2=blues for adam
TTITLE3=en rigtig holden mand
TTITLE4=tiggernes kapel
TTITLE5=det spøger
TTITLE6=byggesjusk
TTITLE7=når andre falder i
TTITLE8=stille himmel
TTITLE9=skabersang
EXTD=
EXTT0=
EXTT1=
EXTT2=
EXTT3=
EXTT4=
EXTT5=
EXTT6=
EXTT7=
EXTT8=
EXTT9=
PLAYORDER=
